<svg xmlns="http://www.w3.org/2000/svg" version="1.1" xmlns:xlink="http://www.w3.org/1999/xlink" xmlns:svgjs="http://svgjs.dev/svgjs" width="2000" height="2024" viewBox="0 0 2000 2024"><g transform="matrix(1,0,0,1,1.767868852458946,0.8194331983804659)"><svg viewBox="0 0 244 247" data-background-color="#636365" preserveAspectRatio="xMidYMid meet" height="2024" width="2000" xmlns="http://www.w3.org/2000/svg" xmlns:xlink="http://www.w3.org/1999/xlink"><g id="tight-bounds" transform="matrix(1,0,0,1,-0.21567999999999188,-0.09999999999999432)"><svg viewBox="0 0 244.43135999999998 247.2" height="247.2" width="244.43135999999998"><g><svg></svg></g><g><svg viewBox="0 0 244.43135999999998 247.2" height="247.2" width="244.43135999999998"><g transform="matrix(1,0,0,1,0,49.923156120401345)"><svg viewBox="0 0 244.43135999999998 147.3536877591973" height="147.3536877591973" width="244.43135999999998"><g><svg viewBox="0 0 244.43135999999998 147.3536877591973" height="147.3536877591973" width="244.43135999999998"><g><svg viewBox="0 0 244.43135999999998 147.3536877591973" height="147.3536877591973" width="244.43135999999998"><g><svg viewBox="0 0 244.43135999999998 147.3536877591973" height="147.3536877591973" width="244.43135999999998"><g id="textblocktransform"><svg viewBox="0 0 244.43135999999998 147.3536877591973" height="147.3536877591973" width="244.43135999999998" id="textblock"><g><svg viewBox="0 0 244.43135999999998 147.3536877591973" height="147.3536877591973" width="244.43135999999998"><g transform="matrix(1,0,0,1,0,0)"><svg width="244.43135999999998" viewBox="4.349999904632568 -35.650001525878906 59.80000305175781 36.05000305175781" height="147.3536877591973" data-palette-color="#141414"><path d="M4.35 0L4.35-35.25 18.3-35.25Q23.85-35.25 26.93-32.55 30-29.85 30-24.9L30-24.9Q30-19.95 26.9-17.2 23.8-14.45 18.3-14.45L18.3-14.45 8.45-14.45 8.45 0 4.35 0ZM8.45-17.85L17.9-17.85Q25.95-17.85 25.95-24.9L25.95-24.9Q25.95-31.85 17.9-31.85L17.9-31.85 8.45-31.85 8.45-17.85ZM51.65-18.35L64.15-18.35 64.15-2.05Q62.05-0.95 58.67-0.28 55.3 0.4 51.85 0.4L51.85 0.4Q46.6 0.4 42.8-1.75 39-3.9 36.97-7.95 34.95-12 34.95-17.65L34.95-17.65Q34.95-23.25 36.95-27.3 38.95-31.35 42.7-33.5 46.45-35.65 51.55-35.65L51.55-35.65Q55.25-35.65 58.35-34.52 61.45-33.4 63.65-31.2L63.65-31.2 62.1-28.05Q59.55-30.25 57.07-31.2 54.6-32.15 51.55-32.15L51.55-32.15Q45.6-32.15 42.4-28.4 39.2-24.65 39.2-17.65L39.2-17.65Q39.2-10.5 42.45-6.78 45.7-3.05 51.95-3.05L51.95-3.05Q56.5-3.05 60.4-4.4L60.4-4.4 60.4-15.15 51.65-15.15 51.65-18.35Z" opacity="1" transform="matrix(1,0,0,1,0,0)" fill="#141414" class="undefined-text-0" data-fill-palette-color="primary" id="text-0"></path></svg></g></svg></g></svg></g></svg></g><g></g></svg></g></svg></g></svg></g><path d="M0 43.923L0 1 244.431 1 244.431 43.923 231.143 43.923 231.143 14.289 13.289 14.289 13.289 43.923 0 43.923M0 203.277L0 246.2 244.431 246.2 244.431 203.277 231.143 203.277 231.143 232.911 13.289 232.911 13.289 203.277 0 203.277" fill="#141414" stroke="transparent" data-fill-palette-color="primary"></path></svg></g><defs></defs></svg><rect width="244.43135999999998" height="247.2" fill="none" stroke="none" visibility="hidden"></rect></g></svg></g></svg>